<?xml version="1.0" encoding="UTF-8" standalone="no"?>
<svg width="100%" height="100%" viewBox="0 0 512 512" version="1.1"
    xmlns="http://www.w3.org/2000/svg" xmlns:xlink="http://www.w3.org/1999/xlink"
    xml:space="preserve" xmlns:serif="http://www.serif.com/"
    style="fill-rule:evenodd;clip-rule:evenodd;stroke-linejoin:round;stroke-miterlimit:2;">
    <path d="M102.597,50.517C102.597,38.663 110.438,28.236 121.835,24.971C146.415,17.931 193.386,7.504 256,7.504C320.278,7.504 366.345,17.776 390.362,24.813C401.664,28.125 409.403,38.524 409.403,50.3L409.403,378.201C409.403,390.055 401.562,400.482 390.165,403.746C365.586,410.787 318.614,421.214 256,421.214C191.722,421.214 145.655,410.941 121.638,403.905C110.336,400.593 102.597,390.193 102.597,378.418L102.597,50.517Z" style="fill:none;fill-rule:nonzero;"/>
    <path d="M363.243,400.486L363.243,434.842C363.243,442.312 358.335,448.907 351.167,451.01C334.396,455.925 300.968,463.618 256,463.618C209.902,463.618 177.202,456.061 160.797,451.141C153.654,448.999 148.757,442.441 148.757,434.984L148.757,400.487L363.243,400.487L363.243,400.486Z" style="fill:none;fill-rule:nonzero;"/>
    <ellipse cx="256" cy="132.031" rx="49.899" ry="49.893" style="fill:none;"/>
    <path d="M102.597,308.284L102.597,378.416C102.597,390.192 110.336,400.592 121.638,403.903C145.655,410.939 191.722,421.212 256,421.212C318.614,421.212 365.585,410.785 390.165,403.744C401.562,400.48 409.403,390.053 409.403,378.199L409.403,308.284L102.597,308.284Z" style="fill:none;fill-rule:nonzero;"/>
    <path d="M376.385,308.285L376.385,378.201C376.385,390.055 368.544,400.482 357.147,403.746C334.743,410.164 293.728,419.391 239.229,420.975C244.675,421.129 250.261,421.214 256,421.214C318.614,421.214 365.585,410.787 390.165,403.746C401.562,400.482 409.403,390.055 409.403,378.201L409.403,308.286L376.385,308.286L376.385,308.285Z" style="fill:none;fill-rule:nonzero;"/>
    <path d="M313.401,132.031C313.401,100.382 287.651,74.635 255.999,74.635C224.347,74.635 198.597,100.382 198.597,132.031C198.597,163.68 224.347,189.428 255.999,189.428C287.651,189.428 313.401,163.68 313.401,132.031ZM213.605,132.031C213.605,108.658 232.624,89.643 256,89.643C279.376,89.643 298.395,108.658 298.395,132.031C298.395,155.405 279.376,174.42 256,174.42C232.624,174.42 213.605,155.405 213.605,132.031Z" style="fill-rule:nonzero;"/>
    <path d="M275.849,122.545C282.662,115.732 272.061,105.109 265.238,111.932L250.193,126.975C243.476,133.691 253.933,144.46 260.804,137.588L275.849,122.545Z" style="fill-rule:nonzero;"/>
    <path d="M416.907,50.3C416.907,35.269 406.859,21.827 392.473,17.612C370.024,11.035 322.444,0 256,0C240.01,0 223.972,0.681 208.333,2.024C198.733,2.849 200.004,17.804 209.616,16.977C224.83,15.67 240.436,15.008 256,15.008C320.57,15.008 366.576,25.663 388.252,32.015C396.288,34.369 401.9,41.888 401.9,50.301L401.9,300.782L110.1,300.782L110.1,50.517C110.1,42.051 115.776,34.512 123.901,32.185C135.216,28.944 147.474,26.075 160.336,23.656C169.805,21.875 167.045,7.119 157.562,8.907C144.245,11.411 131.529,14.39 119.77,17.758C105.241,21.92 95.094,35.391 95.094,50.518L95.094,378.418C95.094,393.449 105.142,406.891 119.528,411.105C125.199,412.767 132.477,414.712 141.253,416.693L141.253,434.984C141.253,445.827 148.241,455.209 158.642,458.329C166.093,460.564 177.461,463.507 192.321,466.007L192.321,504.768C192.321,514.403 207.329,514.417 207.329,504.768L207.329,468.189C211.818,468.745 216.541,469.244 221.49,469.668L221.49,504.768C221.49,514.403 236.498,514.417 236.498,504.768L236.498,470.66C242.714,470.953 249.212,471.121 256.001,471.121C262.554,471.121 269.059,470.961 275.504,470.646L275.504,504.768C275.504,514.403 290.512,514.417 290.512,504.768L290.512,469.614C295.273,469.194 299.994,468.685 304.673,468.089L304.673,504.768C304.673,514.403 319.681,514.417 319.681,504.768L319.681,465.848C323.334,465.222 326.96,464.548 330.549,463.811C339.988,461.874 336.984,447.172 327.531,449.111C274.312,460.032 215.209,459.624 162.954,443.953C158.95,442.752 156.261,439.147 156.261,434.983L156.261,419.794C181.399,424.54 215.122,428.718 256.001,428.718C296.244,428.718 330.232,424.398 355.741,419.539L355.741,434.842C355.741,444.477 370.749,444.491 370.749,434.842L370.749,416.421C379.341,414.484 386.553,412.586 392.232,410.96C406.761,406.799 416.908,393.328 416.908,378.201L416.908,50.3L416.907,50.3ZM388.099,396.532C365.702,402.947 318.758,413.709 256,413.709C191.43,413.709 145.424,403.054 123.748,396.702C115.712,394.347 110.1,386.829 110.1,378.416L110.1,315.788L401.9,315.788L401.9,378.201C401.9,386.666 396.224,394.204 388.099,396.532Z" style="fill-rule:nonzero;"/>
    <path d="M203.845,351.927C194.188,351.927 194.172,366.935 203.845,366.935C213.501,366.935 213.517,351.927 203.845,351.927Z" style="fill-rule:nonzero;"/>
    <path d="M256,351.927C246.343,351.927 246.327,366.935 256,366.935C265.657,366.935 265.673,351.927 256,351.927Z" style="fill-rule:nonzero;"/>
    <path d="M308.155,351.927C298.498,351.927 298.482,366.935 308.155,366.935C317.812,366.935 317.828,351.927 308.155,351.927Z" style="fill-rule:nonzero;"/>
</svg>