<?xml version="1.0" encoding="UTF-8" standalone="no"?>
<svg width="100%" height="100%" viewBox="0 0 800 800" version="1.1"
    xmlns="http://www.w3.org/2000/svg" xmlns:xlink="http://www.w3.org/1999/xlink"
    xml:space="preserve" xmlns:serif="http://www.serif.com/"
    style="fill-rule:evenodd;clip-rule:evenodd;stroke-linecap:round;stroke-linejoin:round;stroke-miterlimit:1.5;">
    <g>
        <g transform="matrix(1,0,0,1,-14.7084,0.200359)">
            <path d="M725.583,290.199C725.583,263.325 703.765,241.507 676.891,241.507L152.526,241.507C125.652,241.507 103.834,263.325 103.834,290.199L103.834,509.4C103.834,536.274 125.652,558.092 152.526,558.092L676.891,558.092C703.765,558.092 725.583,536.274 725.583,509.4L725.583,290.199Z" style="fill:none;stroke:black;stroke-width:20px;"/>
        </g>
        <g transform="matrix(0.768676,0,0,1,-28.6149,0.692302)">
            <path d="M317.318,462.925L225.289,462.925L225.289,335.691L317.318,335.691L317.318,360.3L257.931,360.3L257.931,382.261L313.046,382.261L313.046,406.87L257.931,406.87L257.931,438.315L317.318,438.315L317.318,462.925Z" style="fill-rule:nonzero;"/>
            <path d="M416.183,374.656C416.183,371.465 415.528,368.731 414.218,366.452C412.907,364.174 410.657,362.379 407.467,361.069C405.245,360.158 402.653,359.602 399.691,359.403C396.729,359.204 393.282,359.104 389.352,359.104L377.474,359.104L377.474,393.369L387.557,393.369C392.798,393.369 397.185,393.113 400.717,392.6C404.248,392.087 407.211,390.919 409.603,389.097C411.882,387.331 413.548,385.379 414.602,383.243C415.656,381.107 416.183,378.244 416.183,374.656ZM467.367,462.925L427.291,462.925L392.599,416.269L377.474,416.269L377.474,462.925L344.833,462.925L344.833,335.691L399.862,335.691C407.382,335.691 413.847,336.118 419.259,336.972C424.671,337.827 429.741,339.678 434.469,342.527C439.254,345.375 443.057,349.064 445.876,353.592C448.696,358.121 450.106,363.804 450.106,370.639C450.106,380.039 447.927,387.701 443.569,393.625C439.211,399.55 432.988,404.477 424.899,408.408L467.367,462.925Z" style="fill-rule:nonzero;"/>
            <path d="M553.072,374.656C553.072,371.465 552.417,368.731 551.107,366.452C549.797,364.174 547.547,362.379 544.357,361.069C542.135,360.158 539.543,359.602 536.581,359.403C533.619,359.204 530.172,359.104 526.241,359.104L514.364,359.104L514.364,393.369L524.447,393.369C529.688,393.369 534.074,393.113 537.606,392.6C541.138,392.087 544.1,390.919 546.493,389.097C548.772,387.331 550.438,385.379 551.492,383.243C552.546,381.107 553.072,378.244 553.072,374.656ZM604.257,462.925L564.181,462.925L529.489,416.269L514.364,416.269L514.364,462.925L481.722,462.925L481.722,335.691L536.752,335.691C544.271,335.691 550.737,336.118 556.149,336.972C561.56,337.827 566.63,339.678 571.359,342.527C576.144,345.375 579.946,349.064 582.766,353.592C585.586,358.121 586.996,363.804 586.996,370.639C586.996,380.039 584.817,387.701 580.459,393.625C576.101,399.55 569.877,404.477 561.788,408.408L604.257,462.925Z" style="fill-rule:nonzero;"/>
            <path d="M742.343,399.35C742.343,419.63 736.532,435.738 724.911,447.672C713.29,459.606 697.225,465.574 676.718,465.574C656.267,465.574 640.231,459.606 628.61,447.672C616.989,435.738 611.178,419.63 611.178,399.35C611.178,378.9 616.989,362.735 628.61,350.858C640.231,338.981 656.267,333.042 676.718,333.042C697.111,333.042 713.147,338.981 724.825,350.858C736.503,362.735 742.343,378.9 742.343,399.35ZM698.849,431.565C702.039,427.691 704.403,423.12 705.941,417.85C707.479,412.581 708.248,406.386 708.248,399.265C708.248,391.632 707.365,385.137 705.599,379.783C703.833,374.428 701.526,370.098 698.678,366.794C695.773,363.376 692.426,360.898 688.638,359.36C684.849,357.822 680.905,357.053 676.803,357.053C672.644,357.053 668.728,357.794 665.054,359.275C661.379,360.756 658.004,363.205 654.928,366.623C652.08,369.813 649.758,374.214 647.964,379.825C646.169,385.436 645.272,391.945 645.272,399.35C645.272,406.927 646.141,413.378 647.878,418.705C649.616,424.031 651.909,428.375 654.757,431.736C657.605,435.097 660.938,437.575 664.755,439.17C668.571,440.765 672.587,441.562 676.803,441.562C681.018,441.562 685.035,440.751 688.851,439.127C692.668,437.503 696.001,434.983 698.849,431.565Z" style="fill-rule:nonzero;"/>
            <path d="M838.729,374.656C838.729,371.465 838.074,368.731 836.764,366.452C835.454,364.174 833.204,362.379 830.013,361.069C827.792,360.158 825.2,359.602 822.238,359.403C819.275,359.204 815.829,359.104 811.898,359.104L800.021,359.104L800.021,393.369L810.104,393.369C815.345,393.369 819.731,393.113 823.263,392.6C826.795,392.087 829.757,390.919 832.15,389.097C834.428,387.331 836.095,385.379 837.148,383.243C838.202,381.107 838.729,378.244 838.729,374.656ZM889.913,462.925L849.838,462.925L815.145,416.269L800.021,416.269L800.021,462.925L767.379,462.925L767.379,335.691L822.408,335.691C829.928,335.691 836.394,336.118 841.805,336.972C847.217,337.827 852.287,339.678 857.015,342.527C861.801,345.375 865.603,349.064 868.423,353.592C871.243,358.121 872.653,363.804 872.653,370.639C872.653,380.039 870.474,387.701 866.116,393.625C861.758,399.55 855.534,404.477 847.445,408.408L889.913,462.925Z" style="fill-rule:nonzero;"/>
        </g>
    </g>
</svg>