<?xml version="1.0" encoding="UTF-8" standalone="no"?>
<svg width="100%" height="100%" viewBox="0 0 512 512" version="1.1"
    xmlns="http://www.w3.org/2000/svg" xmlns:xlink="http://www.w3.org/1999/xlink"
    xml:space="preserve" xmlns:serif="http://www.serif.com/"
    style="fill-rule:evenodd;clip-rule:evenodd;stroke-linejoin:round;stroke-miterlimit:2;">
    <g transform="matrix(1,0,0,1,34.4004,316.133)">
        <g>
            <path d="M50.8,-58.8L27.5,-58.8L27.5,-46.2L49.5,-46.2L49.5,-29.6L27.5,-29.6L27.5,-16.6L50.8,-16.6L50.8,0L7.9,0L7.9,-75.4L50.8,-75.4L50.8,-58.8Z" style="fill:white;fill-rule:nonzero;"/>
            <path d="M61.5,0L74.3,-75.4L93.7,-75.4L108.8,-35.2L123.8,-75.4L143.2,-75.4L156,0L136.5,0L130,-43.4L112.2,0L104.4,0L87.5,-43.4L81,0L61.5,0Z" style="fill:white;fill-rule:nonzero;"/>
            <path d="M209.8,-56.1C207.667,-57.833 205.533,-59.117 203.4,-59.95C201.267,-60.783 199.2,-61.2 197.2,-61.2C194.667,-61.2 192.6,-60.6 191,-59.4C189.4,-58.2 188.6,-56.633 188.6,-54.7C188.6,-53.367 189,-52.267 189.8,-51.4C190.6,-50.533 191.65,-49.783 192.95,-49.15C194.25,-48.517 195.717,-47.967 197.35,-47.5C198.983,-47.033 200.6,-46.533 202.2,-46C208.6,-43.867 213.283,-41.017 216.25,-37.45C219.217,-33.883 220.7,-29.233 220.7,-23.5C220.7,-19.633 220.05,-16.133 218.75,-13C217.45,-9.867 215.55,-7.183 213.05,-4.95C210.55,-2.717 207.483,-0.983 203.85,0.25C200.217,1.483 196.1,2.1 191.5,2.1C181.967,2.1 173.133,-0.733 165,-6.4L173.4,-22.2C176.333,-19.6 179.233,-17.667 182.1,-16.4C184.967,-15.133 187.8,-14.5 190.6,-14.5C193.8,-14.5 196.183,-15.233 197.75,-16.7C199.317,-18.167 200.1,-19.833 200.1,-21.7C200.1,-22.833 199.9,-23.817 199.5,-24.65C199.1,-25.483 198.433,-26.25 197.5,-26.95C196.567,-27.65 195.35,-28.3 193.85,-28.9C192.35,-29.5 190.533,-30.167 188.4,-30.9C185.867,-31.7 183.383,-32.583 180.95,-33.55C178.517,-34.517 176.35,-35.8 174.45,-37.4C172.55,-39 171.017,-41.017 169.85,-43.45C168.683,-45.883 168.1,-48.967 168.1,-52.7C168.1,-56.433 168.717,-59.817 169.95,-62.85C171.183,-65.883 172.917,-68.483 175.15,-70.65C177.383,-72.817 180.117,-74.5 183.35,-75.7C186.583,-76.9 190.2,-77.5 194.2,-77.5C197.933,-77.5 201.833,-76.983 205.9,-75.95C209.967,-74.917 213.867,-73.4 217.6,-71.4L209.8,-56.1Z" style="fill:white;fill-rule:nonzero;"/>
            <rect x="225.1" y="-34.3" width="28.7" height="15.1" style="fill:white;fill-rule:nonzero;"/>
            <path d="M304.6,-58.8L281.3,-58.8L281.3,-46.2L303.3,-46.2L303.3,-29.6L281.3,-29.6L281.3,-16.6L304.6,-16.6L304.6,0L261.7,0L261.7,-75.4L304.6,-75.4L304.6,-58.8Z" style="fill:white;fill-rule:nonzero;"/>
            <path d="M360.1,-56.1C357.967,-57.833 355.833,-59.117 353.7,-59.95C351.567,-60.783 349.5,-61.2 347.5,-61.2C344.967,-61.2 342.9,-60.6 341.3,-59.4C339.7,-58.2 338.9,-56.633 338.9,-54.7C338.9,-53.367 339.3,-52.267 340.1,-51.4C340.9,-50.533 341.95,-49.783 343.25,-49.15C344.55,-48.517 346.017,-47.967 347.65,-47.5C349.283,-47.033 350.9,-46.533 352.5,-46C358.9,-43.867 363.583,-41.017 366.55,-37.45C369.517,-33.883 371,-29.233 371,-23.5C371,-19.633 370.35,-16.133 369.05,-13C367.75,-9.867 365.85,-7.183 363.35,-4.95C360.85,-2.717 357.783,-0.983 354.15,0.25C350.517,1.483 346.4,2.1 341.8,2.1C332.267,2.1 323.433,-0.733 315.3,-6.4L323.7,-22.2C326.633,-19.6 329.533,-17.667 332.4,-16.4C335.267,-15.133 338.1,-14.5 340.9,-14.5C344.1,-14.5 346.483,-15.233 348.05,-16.7C349.617,-18.167 350.4,-19.833 350.4,-21.7C350.4,-22.833 350.2,-23.817 349.8,-24.65C349.4,-25.483 348.733,-26.25 347.8,-26.95C346.867,-27.65 345.65,-28.3 344.15,-28.9C342.65,-29.5 340.833,-30.167 338.7,-30.9C336.167,-31.7 333.683,-32.583 331.25,-33.55C328.817,-34.517 326.65,-35.8 324.75,-37.4C322.85,-39 321.317,-41.017 320.15,-43.45C318.983,-45.883 318.4,-48.967 318.4,-52.7C318.4,-56.433 319.017,-59.817 320.25,-62.85C321.483,-65.883 323.217,-68.483 325.45,-70.65C327.683,-72.817 330.417,-74.5 333.65,-75.7C336.883,-76.9 340.5,-77.5 344.5,-77.5C348.233,-77.5 352.133,-76.983 356.2,-75.95C360.267,-74.917 364.167,-73.4 367.9,-71.4L360.1,-56.1Z" style="fill:white;fill-rule:nonzero;"/>
            <path d="M402.9,-40.8L409.4,-40.8C416.6,-40.8 420.2,-43.933 420.2,-50.2C420.2,-56.467 416.6,-59.6 409.4,-59.6L402.9,-59.6L402.9,-40.8ZM402.9,0L383.3,0L383.3,-75.4L414.5,-75.4C422.967,-75.4 429.45,-73.2 433.95,-68.8C438.45,-64.4 440.7,-58.2 440.7,-50.2C440.7,-42.2 438.45,-36 433.95,-31.6C429.45,-27.2 422.967,-25 414.5,-25L402.9,-25L402.9,0Z" style="fill:white;fill-rule:nonzero;"/>
        </g>
    </g>
</svg>