<?xml version="1.0" encoding="UTF-8" standalone="no"?>
<svg width="100%" height="100%" viewBox="0 0 800 800" version="1.1"
    xmlns="http://www.w3.org/2000/svg" xmlns:xlink="http://www.w3.org/1999/xlink"
    xml:space="preserve" xmlns:serif="http://www.serif.com/"
    style="fill-rule:evenodd;clip-rule:evenodd;stroke-linejoin:round;stroke-miterlimit:2;">
    <g transform="matrix(1.74088,0,0,1.74088,-330.156,-323.458)">
        <path d="M376.617,350.387C376.617,379.707 370.433,401.5 358.063,415.767C345.694,430.034 327.86,437.168 304.562,437.168C280.74,437.168 262.742,430.034 250.57,415.767C238.397,401.5 232.31,379.772 232.31,350.584C232.31,321.264 238.528,299.471 250.962,285.204C263.397,270.937 281.263,263.803 304.562,263.803C328.253,263.803 346.185,271.002 358.358,285.4C370.531,299.798 376.617,321.46 376.617,350.387ZM512.285,269.3L359.143,561.645L326.748,561.645L479.89,269.3L512.285,269.3ZM606.527,480.558C606.527,509.877 600.309,531.671 587.875,545.938C575.44,560.205 557.574,567.338 534.275,567.338C510.584,567.338 492.652,560.139 480.479,545.742C468.306,531.344 462.22,509.681 462.22,480.754C462.22,451.435 468.404,429.642 480.773,415.374C493.143,401.107 510.976,393.974 534.275,393.974C558.097,393.974 576.095,401.107 588.267,415.374C600.44,429.642 606.527,451.369 606.527,480.558ZM341.669,350.387C341.669,327.874 338.757,312.167 332.932,303.267C327.108,294.366 317.651,289.916 304.562,289.916C291.211,289.916 281.656,294.366 275.897,303.267C270.138,312.167 267.258,327.939 267.258,350.584C267.258,373.228 270.138,388.967 275.897,397.802C281.656,406.637 291.211,411.055 304.562,411.055C317.651,411.055 327.108,406.637 332.932,397.802C338.757,388.967 341.669,373.162 341.669,350.387ZM571.579,480.558C571.579,458.045 568.667,442.338 562.842,433.437C557.017,424.537 547.56,420.086 534.471,420.086C521.121,420.086 511.565,424.537 505.806,433.437C500.047,442.338 497.168,458.11 497.168,480.754C497.168,503.398 500.047,519.138 505.806,527.973C511.565,536.808 521.121,541.226 534.471,541.226C547.56,541.226 557.017,536.808 562.842,527.973C568.667,519.138 571.579,503.333 571.579,480.558Z" style="fill-rule:nonzero;"/>
    </g>
</svg>