<?xml version="1.0" encoding="UTF-8" standalone="no"?>
<svg width="100%" height="100%" viewBox="0 0 800 800" version="1.1"
    xmlns="http://www.w3.org/2000/svg" xmlns:xlink="http://www.w3.org/1999/xlink"
    xml:space="preserve" xmlns:serif="http://www.serif.com/"
    style="fill-rule:evenodd;clip-rule:evenodd;stroke-linecap:round;stroke-linejoin:round;stroke-miterlimit:1.5;">
    <g id="Wheel">
        <g transform="matrix(0.438269,0,0,0.438269,180.072,200.994)">
            <circle cx="305.137" cy="454.073" r="213.305" style="fill:none;stroke:black;stroke-width:68.45px;"/>
        </g>
        <g transform="matrix(5.32369e-17,-0.869425,0.859346,5.26198e-17,228.511,818.885)">
            <path d="M589.321,110.638C589.321,82.693 612.009,60.004 639.954,60.004C667.9,60.004 690.588,82.693 690.588,110.638" style="fill:none;stroke:black;stroke-width:23.14px;"/>
        </g>
        <g transform="matrix(5.32369e-17,0.869425,-0.859346,5.26198e-17,408.881,-18.8851)">
            <path d="M589.321,110.638C589.321,82.693 612.009,60.004 639.954,60.004C667.9,60.004 690.588,82.693 690.588,110.638" style="fill:none;stroke:black;stroke-width:23.14px;"/>
        </g>
        <g transform="matrix(0.869425,-6.16298e-33,-6.49391e-33,0.859346,-105.081,304.924)">
            <path d="M589.321,110.638C589.321,82.693 612.009,60.004 639.954,60.004C667.9,60.004 690.588,82.693 690.588,110.638" style="fill:none;stroke:black;stroke-width:23.14px;"/>
        </g>
        <g transform="matrix(-0.869425,1.06474e-16,-1.0524e-16,-0.859346,732.689,495.076)">
            <path d="M589.321,110.638C589.321,82.693 612.009,60.004 639.954,60.004C667.9,60.004 690.588,82.693 690.588,110.638" style="fill:none;stroke:black;stroke-width:23.14px;"/>
        </g>
        <g transform="matrix(0.614776,-0.614776,0.60765,0.60765,-42.7036,635.885)">
            <path d="M589.321,110.638C589.321,82.693 612.009,60.004 639.954,60.004C667.9,60.004 690.588,82.693 690.588,110.638" style="fill:none;stroke:black;stroke-width:23.14px;"/>
        </g>
        <g transform="matrix(-0.614776,0.614776,-0.60765,-0.60765,677.23,171.033)">
            <path d="M589.321,110.638C589.321,82.693 612.009,60.004 639.954,60.004C667.9,60.004 690.588,82.693 690.588,110.638" style="fill:none;stroke:black;stroke-width:23.14px;"/>
        </g>
        <g transform="matrix(0.614776,0.614776,-0.60765,0.60765,84.8371,36.5743)">
            <path d="M589.321,110.638C589.321,82.693 612.009,60.004 639.954,60.004C667.9,60.004 690.588,82.693 690.588,110.638" style="fill:none;stroke:black;stroke-width:23.14px;"/>
        </g>
        <g transform="matrix(-0.614776,-0.614776,0.60765,-0.60765,542.772,763.426)">
            <path d="M589.321,110.638C589.321,82.693 612.009,60.004 639.954,60.004C667.9,60.004 690.588,82.693 690.588,110.638" style="fill:none;stroke:black;stroke-width:23.14px;"/>
        </g>
    </g>
    <g id="Cover">
        <g transform="matrix(0.969812,0,0,0.972087,-302.002,-0.746471)">
            <rect x="374.969" y="80.835" width="206.226" height="51.436" style="fill:none;stroke:black;stroke-width:25.75px;"/>
        </g>
        <g transform="matrix(1,0,0,1,8.66783,-54.0735)">
            <circle cx="305.137" cy="454.073" r="213.305" style="fill:none;stroke:black;stroke-width:30px;"/>
        </g>
        <g transform="matrix(0.969812,0,0,0.972087,1.33978,593.59)">
            <rect x="374.969" y="80.835" width="206.226" height="51.436" style="fill:none;stroke:black;stroke-width:25.75px;"/>
        </g>
        <g transform="matrix(1,0,0,1.04397,-86.1956,-17.59)">
            <path d="M186.695,400L186.695,139.296L186.695,400Z" style="fill:none;stroke:black;stroke-width:29.35px;stroke-linecap:butt;"/>
        </g>
        <g transform="matrix(1,0,0,1.04397,340.414,254.578)">
            <path d="M186.695,400L186.695,139.296L186.695,400Z" style="fill:none;stroke:black;stroke-width:29.35px;stroke-linecap:butt;"/>
        </g>
        <g transform="matrix(1,0,0,0.314586,33.6243,84.0112)">
            <path d="M186.695,139.296L186.695,394.925L186.695,139.296Z" style="fill:none;stroke:black;stroke-width:40.47px;stroke-linecap:butt;"/>
        </g>
        <g transform="matrix(1,0,0,0.303466,220.594,550.782)">
            <path d="M186.695,400L186.695,139.296L186.695,400Z" style="fill:none;stroke:black;stroke-width:40.6px;stroke-linecap:butt;"/>
        </g>
    </g>
    <g id="Percent" transform="matrix(1,0,0,1,-74.5428,137.964)">
        <path d="M681.599,-34.131C681.599,-15.901 677.753,-2.352 670.063,6.519C662.372,15.389 651.284,19.825 636.799,19.825C621.987,19.825 610.798,15.389 603.229,6.519C595.661,-2.352 591.877,-15.861 591.877,-34.008C591.877,-52.238 595.742,-65.787 603.474,-74.658C611.205,-83.528 622.313,-87.964 636.799,-87.964C651.529,-87.964 662.678,-83.488 670.246,-74.536C677.814,-65.584 681.599,-52.116 681.599,-34.131ZM765.949,-84.546L670.734,97.217L650.593,97.217L745.807,-84.546L765.949,-84.546ZM824.543,46.802C824.543,65.031 820.677,78.581 812.946,87.452C805.215,96.322 794.107,100.757 779.621,100.757C764.891,100.757 753.742,96.281 746.174,87.329C738.605,78.378 734.821,64.909 734.821,46.924C734.821,28.695 738.666,15.145 746.357,6.275C754.047,-2.596 765.135,-7.031 779.621,-7.031C794.432,-7.031 805.622,-2.596 813.19,6.275C820.759,15.145 824.543,28.654 824.543,46.802ZM659.87,-34.131C659.87,-48.128 658.059,-57.894 654.438,-63.427C650.816,-68.961 644.937,-71.728 636.799,-71.728C628.498,-71.728 622.557,-68.961 618.976,-63.427C615.396,-57.894 613.605,-48.087 613.605,-34.008C613.605,-19.93 615.396,-10.144 618.976,-4.651C622.557,0.843 628.498,3.589 636.799,3.589C644.937,3.589 650.816,0.843 654.438,-4.651C658.059,-10.144 659.87,-19.97 659.87,-34.131ZM802.814,46.802C802.814,32.805 801.004,23.039 797.382,17.505C793.761,11.971 787.881,9.204 779.743,9.204C771.442,9.204 765.501,11.971 761.921,17.505C758.34,23.039 756.55,32.845 756.55,46.924C756.55,61.003 758.34,70.789 761.921,76.282C765.501,81.775 771.442,84.522 779.743,84.522C787.881,84.522 793.761,81.775 797.382,76.282C801.004,70.789 802.814,60.962 802.814,46.802Z" style="fill-rule:nonzero;"/>
    </g>
</svg>