<?xml version="1.0" encoding="UTF-8" standalone="no"?>
<svg width="100%" height="100%" viewBox="0 0 800 800" version="1.1"
    xmlns="http://www.w3.org/2000/svg" xmlns:xlink="http://www.w3.org/1999/xlink"
    xml:space="preserve" xmlns:serif="http://www.serif.com/"
    style="fill-rule:evenodd;clip-rule:evenodd;stroke-linecap:round;stroke-linejoin:round;stroke-miterlimit:1.5;">
    <g>
        <g transform="matrix(1,0,0,1,-14.7084,0.200359)">
            <path d="M725.583,290.199C725.583,263.325 703.765,241.507 676.891,241.507L152.526,241.507C125.652,241.507 103.834,263.325 103.834,290.199L103.834,509.4C103.834,536.274 125.652,558.092 152.526,558.092L676.891,558.092C703.765,558.092 725.583,536.274 725.583,509.4L725.583,290.199Z" style="fill:none;stroke:black;stroke-width:20px;"/>
        </g>
        <g transform="matrix(0.768676,0,0,1,-20.8971,0.692302)">
            <path d="M357.479,422.934C357.479,435.467 352.167,445.65 341.543,453.483C330.919,461.315 316.492,465.232 298.263,465.232C287.724,465.232 278.538,464.306 270.706,462.455C262.873,460.603 255.538,458.253 248.702,455.405L248.702,424.9L252.291,424.9C259.07,430.312 266.661,434.47 275.063,437.375C283.466,440.281 291.541,441.733 299.288,441.733C301.282,441.733 303.903,441.562 307.15,441.221C310.397,440.879 313.046,440.309 315.096,439.512C317.603,438.486 319.668,437.204 321.291,435.666C322.915,434.128 323.727,431.85 323.727,428.83C323.727,426.039 322.545,423.632 320.181,421.61C317.817,419.588 314.356,418.035 309.799,416.953C305.013,415.814 299.958,414.746 294.631,413.749C289.305,412.752 284.306,411.484 279.635,409.946C268.925,406.471 261.221,401.757 256.521,395.804C251.821,389.851 249.471,382.46 249.471,373.63C249.471,361.781 254.784,352.111 265.408,344.62C276.032,337.129 289.69,333.384 306.381,333.384C314.755,333.384 323.029,334.195 331.204,335.819C339.378,337.442 346.456,339.479 352.438,341.929L352.438,371.238L348.934,371.238C343.807,367.136 337.527,363.704 330.093,360.941C322.659,358.178 315.068,356.797 307.321,356.797C304.586,356.797 301.866,356.982 299.16,357.352C296.454,357.722 293.848,358.42 291.342,359.446C289.12,360.3 287.211,361.596 285.616,363.334C284.021,365.071 283.224,367.051 283.224,369.272C283.224,372.633 284.506,375.211 287.069,377.005C289.633,378.8 294.475,380.438 301.595,381.919C306.267,382.887 310.753,383.827 315.054,384.739C319.355,385.65 323.983,386.903 328.939,388.498C338.68,391.688 345.872,396.032 350.515,401.529C355.158,407.027 357.479,414.162 357.479,422.934Z" style="fill-rule:nonzero;"/>
            <path d="M479.501,360.3L439.767,360.3L439.767,462.925L406.954,462.925L406.954,360.3L367.22,360.3L367.22,335.691L479.501,335.691L479.501,360.3Z" style="fill-rule:nonzero;"/>
            <path d="M616.818,462.925L582.894,462.925L574.093,437.204L526.925,437.204L518.124,462.925L485.055,462.925L532.052,335.691L569.821,335.691L616.818,462.925ZM566.146,413.877L550.509,368.247L534.872,413.877L566.146,413.877Z" style="fill-rule:nonzero;"/>
            <path d="M734.652,360.3L694.918,360.3L694.918,462.925L662.106,462.925L662.106,360.3L622.372,360.3L622.372,335.691L734.652,335.691L734.652,360.3Z" style="fill-rule:nonzero;"/>
            <path d="M846.42,462.925L754.391,462.925L754.391,335.691L846.42,335.691L846.42,360.3L787.032,360.3L787.032,382.261L842.147,382.261L842.147,406.87L787.032,406.87L787.032,438.315L846.42,438.315L846.42,462.925Z" style="fill-rule:nonzero;"/>
        </g>
    </g>
</svg>